<svg xmlns="http://www.w3.org/2000/svg" viewBox="0 0 512 512" width="512" height="512"><defs><linearGradient id="gemSpark" x1="0" y1="0" x2="1" y2="1"><stop offset="0" stop-color="#9D4EDD"/><stop offset="1" stop-color="#4E8DFF"/></linearGradient></defs><rect width="512" height="512" rx="112" fill="#090B10"/><g transform="matrix(0.30,0,0,-0.30,64,340)"><path d="M 1352.8,716 L 1474.8,858" fill="none" stroke="#2DD4BF" stroke-width="34" stroke-linecap="round"/><path transform="translate(0,0)" d="M396.7989501953125 722Q462.7989501953125 722 505.2989501953125 702.5Q547.7989501953125 683 580.7989501953125 657Q600.7989501953125 642 611.2989501953125 653.5Q621.7989501953125 665 625.7989501953125 708H648.7989501953125Q646.7989501953125 669.2000732421875 645.7989501953125 613.5001831054688Q644.7989501953125 557.80029296875 644.7989501953125 466.00048828125H621.7989501953125Q616.598876953125 512.0003662109375 608.7989501953125 544.7000732421875Q600.9990234375 577.3997802734375 586.7992553710938 601.99951171875Q572.5994873046875 626.5992431640625 546.5999755859375 646.9991455078125Q521.5997314453125 671.7998046875 488.69915771484375 684.0000610351562Q455.798583984375 696.2003173828125 419.9979248046875 696.2003173828125Q366.1981201171875 696.2003173828125 328.19805908203125 667.50048828125Q290.197998046875 638.8006591796875 266.497802734375 590.1007690429688Q242.797607421875 541.40087890625 231.79742431640625 479.70074462890625Q220.7972412109375 418.0006103515625 220.7972412109375 352Q220.7972412109375 284.79931640625 232.3974609375 223.2991943359375Q243.9976806640625 161.799072265625 268.4979248046875 113.89923095703125Q292.9981689453125 65.9993896484375 331.79827880859375 38.099609375Q370.598388671875 10.1998291015625 423.9981689453125 10.1998291015625Q456.9986572265625 10.1998291015625 490.69927978515625 22.50006103515625Q524.39990234375 34.80029296875 548.2000732421875 58.6009521484375Q586.9993896484375 88.8009033203125 600.899169921875 133.6004638671875Q614.7989501953125 178.4000244140625 621.7989501953125 251.99951171875H644.7989501953125Q644.7989501953125 156.7996826171875 645.7989501953125 98.2998046875Q646.7989501953125 39.7999267578125 648.7989501953125 0H625.7989501953125Q621.7989501953125 43 612.2989501953125 54.0Q602.7989501953125 65 580.7989501953125 51Q543.7989501953125 25 502.2989501953125 5.5Q460.7989501953125 -14 395.7989501953125 -14Q289.9993896484375 -14 210.39971923828125 29.0Q130.800048828125 72 86.80023193359375 153.0Q42.8004150390625 234 42.8004150390625 348Q42.8004150390625 460 88.30023193359375 544.0Q133.800048828125 628 213.39971923828125 675.0Q292.9993896484375 722 396.7989501953125 722Z" fill="#FFFFFF"/><path transform="translate(701.475,0)" d="M677.79833984375 708V688Q656.3984375 679.8001708984375 631.5985717773438 652.7005004882812Q606.7987060546875 625.600830078125 586.1988525390625 569.2012939453125L375.1978759765625 -2.0001220703125Q367.1981201171875 -1.400146484375 358.29840087890625 -1.10015869140625Q349.398681640625 -0.8001708984375 340.198974609375 -0.8001708984375Q331.5992431640625 -0.8001708984375 322.69952392578125 -1.10015869140625Q313.7998046875 -1.400146484375 305.800048828125 -2.0001220703125L51.00048828125 624Q36.6004638671875 660.2000732421875 19.70037841796875 673.6000366210938Q2.80029296875 687 -11.999755859375 688V708Q17.599853515625 707 58.4993896484375 706.0Q99.39892578125 705 139.9984130859375 705Q186.1981201171875 705 226.7978515625 706.0Q267.3975830078125 707 291.9974365234375 708V688Q259.79736328125 687 241.99737548828125 680.5999755859375Q224.1973876953125 674.199951171875 222.097412109375 656.699951171875Q219.9974365234375 639.199951171875 233.597412109375 604L415.99755859375 140.998779296875L395.19775390625 115.59912109375L533.19921875 488.40234375Q560.198974609375 562.801513671875 560.9989013671875 605.9010009765625Q561.798828125 649.00048828125 539.798828125 668.000244140625Q517.798828125 687 476.998779296875 688V708Q511.3985595703125 707 541.0985717773438 706.0Q570.798583984375 705 601.598388671875 705Q623.99853515625 705 643.3984375 706.0Q662.79833984375 707 677.79833984375 708Z" fill="#FFFFFF"/><path d="M 1638.8,595 Q 1654.0,674.8 1733.8,690 Q 1654.0,705.2 1638.8,785 Q 1623.6,705.2 1543.8,690 Q 1623.6,674.8 1638.8,595 Z" fill="url(#gemSpark)"/></g></svg>