<svg xmlns="http://www.w3.org/2000/svg" viewBox="0 0 875 232" width="3500" height="928"><defs><linearGradient id="gemSpark" x1="0" y1="0" x2="1" y2="1"><stop offset="0" stop-color="#9D4EDD"/><stop offset="1" stop-color="#4E8DFF"/></linearGradient></defs><g transform="matrix(0.22,0,0,-0.22,15,190)"><path d="M 1352.8,716 L 1474.8,858" fill="none" stroke="#2DD4BF" stroke-width="34" stroke-linecap="round"/><path transform="translate(0,0)" d="M396.7989501953125 722Q462.7989501953125 722 505.2989501953125 702.5Q547.7989501953125 683 580.7989501953125 657Q600.7989501953125 642 611.2989501953125 653.5Q621.7989501953125 665 625.7989501953125 708H648.7989501953125Q646.7989501953125 669.2000732421875 645.7989501953125 613.5001831054688Q644.7989501953125 557.80029296875 644.7989501953125 466.00048828125H621.7989501953125Q616.598876953125 512.0003662109375 608.7989501953125 544.7000732421875Q600.9990234375 577.3997802734375 586.7992553710938 601.99951171875Q572.5994873046875 626.5992431640625 546.5999755859375 646.9991455078125Q521.5997314453125 671.7998046875 488.69915771484375 684.0000610351562Q455.798583984375 696.2003173828125 419.9979248046875 696.2003173828125Q366.1981201171875 696.2003173828125 328.19805908203125 667.50048828125Q290.197998046875 638.8006591796875 266.497802734375 590.1007690429688Q242.797607421875 541.40087890625 231.79742431640625 479.70074462890625Q220.7972412109375 418.0006103515625 220.7972412109375 352Q220.7972412109375 284.79931640625 232.3974609375 223.2991943359375Q243.9976806640625 161.799072265625 268.4979248046875 113.89923095703125Q292.9981689453125 65.9993896484375 331.79827880859375 38.099609375Q370.598388671875 10.1998291015625 423.9981689453125 10.1998291015625Q456.9986572265625 10.1998291015625 490.69927978515625 22.50006103515625Q524.39990234375 34.80029296875 548.2000732421875 58.6009521484375Q586.9993896484375 88.8009033203125 600.899169921875 133.6004638671875Q614.7989501953125 178.4000244140625 621.7989501953125 251.99951171875H644.7989501953125Q644.7989501953125 156.7996826171875 645.7989501953125 98.2998046875Q646.7989501953125 39.7999267578125 648.7989501953125 0H625.7989501953125Q621.7989501953125 43 612.2989501953125 54.0Q602.7989501953125 65 580.7989501953125 51Q543.7989501953125 25 502.2989501953125 5.5Q460.7989501953125 -14 395.7989501953125 -14Q289.9993896484375 -14 210.39971923828125 29.0Q130.800048828125 72 86.80023193359375 153.0Q42.8004150390625 234 42.8004150390625 348Q42.8004150390625 460 88.30023193359375 544.0Q133.800048828125 628 213.39971923828125 675.0Q292.9993896484375 722 396.7989501953125 722Z" fill="#FFFFFF"/><path transform="translate(701.475,0)" d="M677.79833984375 708V688Q656.3984375 679.8001708984375 631.5985717773438 652.7005004882812Q606.7987060546875 625.600830078125 586.1988525390625 569.2012939453125L375.1978759765625 -2.0001220703125Q367.1981201171875 -1.400146484375 358.29840087890625 -1.10015869140625Q349.398681640625 -0.8001708984375 340.198974609375 -0.8001708984375Q331.5992431640625 -0.8001708984375 322.69952392578125 -1.10015869140625Q313.7998046875 -1.400146484375 305.800048828125 -2.0001220703125L51.00048828125 624Q36.6004638671875 660.2000732421875 19.70037841796875 673.6000366210938Q2.80029296875 687 -11.999755859375 688V708Q17.599853515625 707 58.4993896484375 706.0Q99.39892578125 705 139.9984130859375 705Q186.1981201171875 705 226.7978515625 706.0Q267.3975830078125 707 291.9974365234375 708V688Q259.79736328125 687 241.99737548828125 680.5999755859375Q224.1973876953125 674.199951171875 222.097412109375 656.699951171875Q219.9974365234375 639.199951171875 233.597412109375 604L415.99755859375 140.998779296875L395.19775390625 115.59912109375L533.19921875 488.40234375Q560.198974609375 562.801513671875 560.9989013671875 605.9010009765625Q561.798828125 649.00048828125 539.798828125 668.000244140625Q517.798828125 687 476.998779296875 688V708Q511.3985595703125 707 541.0985717773438 706.0Q570.798583984375 705 601.598388671875 705Q623.99853515625 705 643.3984375 706.0Q662.79833984375 707 677.79833984375 708Z" fill="#FFFFFF"/><path transform="translate(1366.135,0)" d="M162.0003662109375 -7Q117.4005126953125 -7 87.4005126953125 9.99993896484375Q57.4005126953125 26.9998779296875 43.1004638671875 55.599853515625Q28.8004150390625 84.1998291015625 28.8004150390625 118.199951171875Q28.8004150390625 161 48.40045166015625 188.10003662109375Q68.00048828125 215.2000732421875 99.10052490234375 231.90008544921875Q130.2005615234375 248.60009765625 164.80059814453125 259.80010986328125Q199.400634765625 271.0001220703125 230.50067138671875 281.5001220703125Q261.6007080078125 292.0001220703125 281.20074462890625 306.30010986328125Q300.80078125 320.60009765625 300.80078125 343.60009765625V421.7994384765625Q300.80078125 448.2000732421875 292.5006103515625 468.400146484375Q284.200439453125 488.6002197265625 266.80029296875 500.00006103515625Q249.400146484375 511.39990234375 221.000244140625 511.39990234375Q201.4000244140625 511.39990234375 181.2996826171875 505.89984130859375Q161.1993408203125 500.3997802734375 147.7991943359375 486.7994384765625Q176.3988037109375 477.399658203125 191.5987548828125 456.89984130859375Q206.7987060546875 436.4000244140625 206.7987060546875 409.60009765625Q206.7987060546875 375.6004638671875 183.5989990234375 356.00067138671875Q160.3992919921875 336.40087890625 127.599609375 336.40087890625Q91.9998779296875 336.40087890625 73.40008544921875 358.80072021484375Q54.80029296875 381.2005615234375 54.80029296875 412.6002197265625Q54.80029296875 441.60009765625 69.30023193359375 460.89996337890625Q83.8001708984375 480.1998291015625 110.39990234375 496.5997314453125Q137.5997314453125 513.19970703125 177.39959716796875 522.2998046875Q217.199462890625 531.39990234375 263.199462890625 531.39990234375Q308.999267578125 531.39990234375 345.7989501953125 521.89990234375Q382.5986328125 512.39990234375 408.1983642578125 486.6002197265625Q431.198486328125 463.8001708984375 437.99853515625 430.20013427734375Q444.798583984375 396.60009765625 444.798583984375 346.2001953125V74.199951171875Q444.798583984375 49.199951171875 449.898681640625 39.39990234375Q454.998779296875 29.599853515625 466.7989501953125 29.599853515625Q475.9990234375 29.599853515625 484.49908447265625 34.599853515625Q492.9991455078125 39.599853515625 502.79931640625 47L513.1993408203125 30Q491.599365234375 12.2000732421875 464.49969482421875 2.60003662109375Q437.4000244140625 -7 403.0001220703125 -7Q365.6004638671875 -7 343.90057373046875 3.29998779296875Q322.20068359375 13.5999755859375 312.70068359375 31.9000244140625Q303.20068359375 50.2000732421875 302.6007080078125 74.2003173828125Q279.2005615234375 36.4000244140625 245.3004150390625 14.70001220703125Q211.4002685546875 -7 162.0003662109375 -7ZM233.39892578125 56.9990234375Q253.199462890625 56.9990234375 269.699951171875 66.69940185546875Q286.200439453125 76.3997802734375 300.80078125 97.6004638671875V302.60009765625Q291.8006591796875 288 275.70037841796875 275.9000244140625Q259.60009765625 263.800048828125 241.5997314453125 251.40008544921875Q223.599365234375 239.0001220703125 207.4990234375 223.80010986328125Q191.398681640625 208.60009765625 181.09844970703125 186.89996337890625Q170.7982177734375 165.1998291015625 170.7982177734375 133.5994873046875Q170.7982177734375 94.7994384765625 188.098388671875 75.89923095703125Q205.3985595703125 56.9990234375 233.39892578125 56.9990234375Z" fill="#FFFFFF"/><path transform="translate(1881.545,0)" d="M506.9991455078125 517.39990234375V496.7999267578125Q487.9991455078125 491.800048828125 471.09918212890625 473.50018310546875Q454.19921875 455.2003173828125 438.3992919921875 410.6005859375L291.798583984375 -2.0001220703125Q275.799072265625 -0.8001708984375 259.49957275390625 -0.8001708984375Q243.2000732421875 -0.8001708984375 226.800537109375 -2.0001220703125L48.80029296875 440.39990234375Q33.4002685546875 478.7999267578125 17.60028076171875 487.59991455078125Q1.80029296875 496.39990234375 -9.19970703125 496.39990234375V517.39990234375Q22.7998046875 515.199951171875 57.19927978515625 513.699951171875Q91.5987548828125 512.199951171875 132.798095703125 512.199951171875Q163.798095703125 512.199951171875 198.298095703125 513.7999267578125Q232.798095703125 515.39990234375 262.798095703125 517.39990234375V496.39990234375Q241.9979248046875 496.39990234375 225.497802734375 494.099853515625Q208.9976806640625 491.7998046875 202.897705078125 480.89959716796875Q196.7977294921875 469.9993896484375 205.197998046875 442.39892578125L322.3983154296875 131.5989990234375L312.198486328125 117.599365234375L391.39990234375 337.402587890625Q410.399658203125 391.4017333984375 407.2996826171875 425.60113525390625Q404.19970703125 459.800537109375 385.19976806640625 477.30023193359375Q366.1998291015625 494.7999267578125 333.7996826171875 496.7999267578125V517.39990234375Q349.3997802734375 516.39990234375 366.599609375 515.5999145507812Q383.7994384765625 514.7999267578125 400.499267578125 514.2999267578125Q417.1990966796875 513.7999267578125 430.399169921875 513.7999267578125Q450.3992919921875 513.7999267578125 472.19915771484375 514.7999267578125Q493.9990234375 515.7999267578125 506.9991455078125 517.39990234375Z" fill="#FFFFFF"/><path transform="translate(2387.005,0)" d="M232.198486328125 528.39990234375V93.21537585136218Q232.198486328125 51 246.6986083984375 36.0Q261.19873046875 21 296.198974609375 21V0Q277.53857705759447 1 239.66894673192223 2.5Q201.79931640625 4 162.5994873046875 4Q123.89198655348558 4 84.04602989783655 2.5Q44.2000732421875 1 24.2001953125 0V21Q59.200439453125 21 73.7005615234375 36.0Q88.20068359375 51 88.20068359375 93.25198974609376V408.1299133300781Q88.20068359375 453.39990234375 74.72689658717105 474.89990234375Q61.25310958059211 496.39990234375 24.2001953125 496.39990234375V517.39990234375Q56.2001953125 514.39990234375 86.2001953125 514.39990234375Q127.7996826171875 514.39990234375 164.499267578125 517.89990234375Q201.1988525390625 521.39990234375 232.198486328125 528.39990234375Z" fill="#FFFFFF"/><path transform="translate(2700.4300000000003,0)" d="M281.599609375 531.39990234375Q369.599609375 531.39990234375 419.6995849609375 479.099853515625Q469.799560546875 426.7998046875 469.799560546875 309H140.798583984375L139.1986083984375 328H343.80078125Q345.2008056640625 377 338.20068359375 418.5Q331.2005615234375 460 316.00030517578125 485.0Q300.800048828125 510 275.7996826171875 510Q241.19921875 510 216.79876708984375 466.09991455078125Q192.3983154296875 422.1998291015625 186.5982666015625 320.39990234375L190.1982421875 314Q188.7982177734375 301.9998779296875 188.398193359375 288.7996826171875Q187.9981689453125 275.5994873046875 187.9981689453125 261.79931640625Q187.9981689453125 192.599365234375 207.29827880859375 149.59912109375Q226.598388671875 106.598876953125 256.6986083984375 87.39862060546875Q286.798828125 68.1983642578125 318.1990966796875 68.1983642578125Q338.5994873046875 68.1983642578125 361.09967041015625 74.39849853515625Q383.599853515625 80.5986328125 406.599853515625 98.09881591796875Q429.599853515625 115.5989990234375 449.5997314453125 148.399169921875L467.7998046875 141.59912109375Q456.1998291015625 104.3992919921875 430.29986572265625 68.29949951171875Q404.39990234375 32.19970703125 364.0 9.099853515625Q323.60009765625 -14 267.600341796875 -14Q200.400146484375 -14 148.3001708984375 14.8001708984375Q96.2001953125 43.600341796875 66.60028076171875 103.00030517578125Q37.0003662109375 162.4002685546875 37.0003662109375 253.399658203125Q37.0003662109375 346.199462890625 68.6002197265625 407.8995361328125Q100.2000732421875 469.599609375 155.69989013671875 500.499755859375Q211.19970703125 531.39990234375 281.599609375 531.39990234375Z" fill="#FFFFFF"/><path d="M 2492,567 Q 2506.08,640.92 2580,655 Q 2506.08,669.08 2492,743 Q 2477.92,669.08 2404,655 Q 2477.92,640.92 2492,567 Z" fill="url(#gemSpark)"/></g></svg>